<?xml version="1.0" encoding="utf-8"?>
<!-- Generator: Adobe Illustrator 23.0.1, SVG Export Plug-In . SVG Version: 6.00 Build 0)  -->
<svg version="1.1" id="Layer_1" xmlns="http://www.w3.org/2000/svg" xmlns:xlink="http://www.w3.org/1999/xlink" x="0px" y="0px"
	 viewBox="0 0 520 96" style="enable-background:new 0 0 520 96;" xml:space="preserve">
<style type="text/css">
	.st0{fill:#1D1D1B;}
</style>
<g>
	<path class="st0" d="M66.7,47L42.5,29.3L39,34.2l21.4,15.6l-5.1,7L39.8,45.6L24.4,34.3l13.8-18.9l18.9,13.8l-2.6,3.5l4.9,3.5
		l4.6-6.3c0.8-1.1,0.6-2.7-0.5-3.5L39,8.5c-1.1-0.8-2.7-0.6-3.5,0.5L19.6,30.8l0,0L8.8,45.5C8,46.6,8.3,48.2,9.4,49l24.2,17.7
		l3.5-4.9L15.7,46.2l5.1-7l15.4,11.2l15.4,11.2L37.8,80.6L18.9,66.8l2.6-3.5l-4.9-3.5L12,66.1c-0.8,1.1-0.6,2.7,0.5,3.5l24.6,18
		c1.1,0.8,2.7,0.6,3.5-0.5l15.9-21.8l0,0l10.7-14.7C68.1,49.4,67.8,47.8,66.7,47z"/>
	<g>
		<path d="M117.5,38c-0.1,0.3-0.3,0.5-0.5,0.6s-0.4,0.2-0.7,0.2s-0.6-0.1-0.9-0.3c-0.3-0.2-0.7-0.4-1.2-0.7c-0.5-0.3-1-0.5-1.6-0.7
			s-1.3-0.3-2.1-0.3c-0.7,0-1.4,0.1-2,0.3c-0.6,0.2-1,0.4-1.4,0.8s-0.7,0.7-0.8,1.1c-0.2,0.4-0.3,0.9-0.3,1.5c0,0.7,0.2,1.2,0.6,1.7
			s0.9,0.8,1.5,1.2c0.6,0.3,1.3,0.6,2.1,0.9c0.8,0.3,1.6,0.5,2.5,0.8c0.8,0.3,1.7,0.6,2.5,1c0.8,0.4,1.5,0.9,2.1,1.4
			s1.1,1.3,1.5,2.1c0.4,0.8,0.6,1.9,0.6,3.1c0,1.3-0.2,2.5-0.7,3.7c-0.4,1.1-1.1,2.1-2,3s-1.9,1.5-3.1,2c-1.2,0.5-2.7,0.7-4.3,0.7
			c-0.9,0-1.8-0.1-2.7-0.3c-0.9-0.2-1.8-0.4-2.6-0.8c-0.8-0.3-1.6-0.7-2.3-1.2s-1.3-1-1.9-1.6l1.6-2.6c0.1-0.2,0.3-0.3,0.5-0.5
			c0.2-0.1,0.4-0.2,0.7-0.2c0.3,0,0.7,0.1,1.1,0.4s0.8,0.6,1.4,0.9c0.5,0.3,1.1,0.6,1.9,0.9c0.7,0.3,1.6,0.4,2.6,0.4
			c1.5,0,2.7-0.4,3.6-1.1c0.8-0.7,1.3-1.8,1.3-3.1c0-0.8-0.2-1.4-0.6-1.9c-0.4-0.5-0.9-0.9-1.5-1.2c-0.6-0.3-1.3-0.6-2.1-0.8
			c-0.8-0.2-1.6-0.5-2.4-0.7c-0.8-0.3-1.6-0.6-2.4-1c-0.8-0.4-1.5-0.9-2.1-1.5c-0.6-0.6-1.1-1.3-1.5-2.2c-0.4-0.9-0.6-2-0.6-3.3
			c0-1.1,0.2-2.1,0.6-3.1s1-1.9,1.8-2.7s1.8-1.4,3-1.9c1.2-0.5,2.5-0.7,4-0.7c1.7,0,3.3,0.3,4.7,0.8c1.4,0.5,2.7,1.3,3.7,2.2
			L117.5,38z"/>
		<path d="M142.6,51c0.2,0.5,0.4,0.9,0.6,1.4c0.2-0.5,0.4-1,0.6-1.4s0.4-0.9,0.6-1.3l8.6-16c0.1-0.2,0.2-0.4,0.3-0.5
			s0.2-0.2,0.4-0.3s0.3-0.1,0.5-0.1c0.2,0,0.4,0,0.6,0h4.1v28.9h-4.7V42.9c0-0.3,0-0.7,0-1.1c0-0.4,0-0.8,0.1-1.3l-8.7,16.4
			c-0.2,0.4-0.5,0.7-0.8,0.9c-0.3,0.2-0.7,0.3-1.1,0.3h-0.7c-0.4,0-0.8-0.1-1.1-0.3c-0.3-0.2-0.6-0.5-0.8-0.9l-8.9-16.5
			c0.1,0.4,0.1,0.9,0.1,1.3c0,0.4,0,0.8,0,1.2v18.7h-4.7V32.7h4.1c0.2,0,0.4,0,0.6,0c0.2,0,0.3,0,0.5,0.1c0.1,0.1,0.3,0.1,0.4,0.3
			s0.2,0.3,0.3,0.5l8.6,16.1C142.2,50,142.4,50.5,142.6,51z"/>
		<path d="M194.1,61.6h-4.2c-0.5,0-0.8-0.1-1.1-0.3s-0.5-0.5-0.7-0.9l-2.2-5.9h-12l-2.2,5.9c-0.1,0.3-0.3,0.6-0.6,0.8
			c-0.3,0.3-0.7,0.4-1.2,0.4h-4.2l11.4-28.9h5.5L194.1,61.6z M175.4,50.7h9.2l-3.5-9.6c-0.2-0.4-0.3-0.9-0.5-1.5s-0.4-1.2-0.6-1.9
			c-0.2,0.7-0.4,1.3-0.5,1.9s-0.4,1.1-0.5,1.5L175.4,50.7z"/>
		<path d="M206.6,50.3v11.3h-5.4V32.7h8.8c2,0,3.7,0.2,5.1,0.6c1.4,0.4,2.6,1,3.5,1.7c0.9,0.7,1.6,1.6,2,2.6c0.4,1,0.6,2.1,0.6,3.4
			c0,1-0.1,1.9-0.4,2.8s-0.7,1.7-1.2,2.4c-0.5,0.7-1.2,1.3-2,1.9c-0.8,0.5-1.7,1-2.7,1.3c0.7,0.4,1.3,0.9,1.8,1.7l7.2,10.7H219
			c-0.5,0-0.9-0.1-1.2-0.3c-0.3-0.2-0.6-0.5-0.8-0.8l-6.1-9.3c-0.2-0.3-0.5-0.6-0.8-0.7c-0.3-0.1-0.7-0.2-1.2-0.2H206.6z
			 M206.6,46.5h3.4c1,0,1.9-0.1,2.7-0.4c0.8-0.3,1.4-0.6,1.9-1c0.5-0.4,0.9-1,1.1-1.6c0.2-0.6,0.4-1.3,0.4-2c0-1.5-0.5-2.6-1.5-3.4
			c-1-0.8-2.4-1.2-4.4-1.2h-3.4V46.5z"/>
		<path d="M250.5,32.7v4.4h-8.7v24.5h-5.4V37.1h-8.7v-4.4H250.5z"/>
		<path d="M295.3,47.2c0,2.1-0.4,4.1-1.1,5.8c-0.7,1.8-1.7,3.3-3,4.6c-1.3,1.3-2.8,2.3-4.6,3c-1.8,0.7-3.8,1.1-6,1.1h-11V32.7h11
			c2.2,0,4.2,0.4,6,1.1c1.8,0.7,3.3,1.7,4.6,3c1.3,1.3,2.3,2.8,3,4.6C295,43.1,295.3,45,295.3,47.2z M289.8,47.2
			c0-1.6-0.2-3-0.6-4.3c-0.4-1.3-1-2.3-1.8-3.2c-0.8-0.9-1.7-1.5-2.9-2c-1.1-0.5-2.4-0.7-3.8-0.7h-5.6v20.4h5.6
			c1.4,0,2.7-0.2,3.8-0.7c1.1-0.5,2.1-1.1,2.9-2c0.8-0.9,1.4-1.9,1.8-3.2C289.6,50.2,289.8,48.7,289.8,47.2z"/>
		<path d="M328,61.6h-4.2c-0.5,0-0.8-0.1-1.1-0.3s-0.5-0.5-0.7-0.9l-2.2-5.9h-12l-2.2,5.9c-0.1,0.3-0.3,0.6-0.6,0.8
			c-0.3,0.3-0.7,0.4-1.2,0.4h-4.2l11.4-28.9h5.5L328,61.6z M309.2,50.7h9.2l-3.5-9.6c-0.2-0.4-0.3-0.9-0.5-1.5s-0.4-1.2-0.6-1.9
			c-0.2,0.7-0.4,1.3-0.5,1.9s-0.4,1.1-0.5,1.5L309.2,50.7z"/>
		<path d="M352.4,32.7v4.4h-8.7v24.5h-5.4V37.1h-8.7v-4.4H352.4z"/>
		<path d="M382.3,61.6h-4.2c-0.5,0-0.8-0.1-1.1-0.3s-0.5-0.5-0.7-0.9l-2.2-5.9h-12l-2.2,5.9c-0.1,0.3-0.3,0.6-0.6,0.8
			c-0.3,0.3-0.7,0.4-1.2,0.4h-4.2l11.4-28.9h5.5L382.3,61.6z M363.6,50.7h9.2l-3.5-9.6c-0.2-0.4-0.3-0.9-0.5-1.5s-0.4-1.2-0.6-1.9
			c-0.2,0.7-0.4,1.3-0.5,1.9s-0.4,1.1-0.5,1.5L363.6,50.7z"/>
		<path d="M414.3,57.7c1.2,0,2.3-0.1,3.2-0.3c0.9-0.2,1.8-0.5,2.6-0.9v-5.3h-3.6c-0.3,0-0.6-0.1-0.8-0.3s-0.3-0.4-0.3-0.7v-3h9.6
			v11.7c-0.7,0.5-1.5,1-2.3,1.4c-0.8,0.4-1.6,0.7-2.5,1c-0.9,0.3-1.9,0.4-2.9,0.6c-1,0.1-2.1,0.2-3.3,0.2c-2.1,0-4-0.4-5.8-1.1
			c-1.8-0.7-3.3-1.8-4.6-3.1c-1.3-1.3-2.3-2.9-3-4.7c-0.7-1.8-1.1-3.8-1.1-5.9c0-2.2,0.4-4.2,1.1-6c0.7-1.8,1.7-3.4,3-4.7
			c1.3-1.3,2.9-2.3,4.7-3s3.9-1.1,6.2-1.1c2.4,0,4.4,0.4,6.1,1c1.7,0.7,3.2,1.6,4.4,2.7l-1.6,2.4c-0.3,0.5-0.7,0.7-1.2,0.7
			c-0.3,0-0.6-0.1-1-0.3c-0.4-0.3-0.9-0.5-1.3-0.8c-0.4-0.3-0.9-0.5-1.5-0.7c-0.5-0.2-1.1-0.3-1.8-0.5c-0.7-0.1-1.4-0.2-2.3-0.2
			c-1.4,0-2.7,0.2-3.9,0.7c-1.2,0.5-2.1,1.2-3,2.1c-0.8,0.9-1.4,2-1.9,3.2c-0.4,1.3-0.7,2.7-0.7,4.2c0,1.7,0.2,3.2,0.7,4.5
			c0.5,1.3,1.1,2.4,2,3.3c0.8,0.9,1.8,1.6,3,2C411.6,57.4,412.9,57.7,414.3,57.7z"/>
		<path d="M439.5,50.3v11.3h-5.4V32.7h8.8c2,0,3.7,0.2,5.1,0.6c1.4,0.4,2.6,1,3.5,1.7c0.9,0.7,1.6,1.6,2,2.6c0.4,1,0.6,2.1,0.6,3.4
			c0,1-0.1,1.9-0.4,2.8s-0.7,1.7-1.2,2.4c-0.5,0.7-1.2,1.3-2,1.9c-0.8,0.5-1.7,1-2.7,1.3c0.7,0.4,1.3,0.9,1.8,1.7l7.2,10.7h-4.8
			c-0.5,0-0.9-0.1-1.2-0.3c-0.3-0.2-0.6-0.5-0.8-0.8l-6.1-9.3c-0.2-0.3-0.5-0.6-0.8-0.7c-0.3-0.1-0.7-0.2-1.2-0.2H439.5z
			 M439.5,46.5h3.4c1,0,1.9-0.1,2.7-0.4c0.8-0.3,1.4-0.6,1.9-1c0.5-0.4,0.9-1,1.1-1.6c0.2-0.6,0.4-1.3,0.4-2c0-1.5-0.5-2.6-1.5-3.4
			c-1-0.8-2.4-1.2-4.4-1.2h-3.4V46.5z"/>
		<path d="M470.2,61.6h-5.4V32.7h5.4V61.6z"/>
		<path d="M506.3,47.2c0,2.1-0.4,4.1-1.1,5.8c-0.7,1.8-1.7,3.3-3,4.6c-1.3,1.3-2.8,2.3-4.6,3c-1.8,0.7-3.8,1.1-6,1.1h-11V32.7h11
			c2.2,0,4.2,0.4,6,1.1c1.8,0.7,3.3,1.7,4.6,3c1.3,1.3,2.3,2.8,3,4.6C506,43.1,506.3,45,506.3,47.2z M500.8,47.2
			c0-1.6-0.2-3-0.6-4.3c-0.4-1.3-1-2.3-1.8-3.2c-0.8-0.9-1.7-1.5-2.9-2c-1.1-0.5-2.4-0.7-3.8-0.7h-5.6v20.4h5.6
			c1.4,0,2.7-0.2,3.8-0.7c1.1-0.5,2.1-1.1,2.9-2c0.8-0.9,1.4-1.9,1.8-3.2C500.6,50.2,500.8,48.7,500.8,47.2z"/>
	</g>
</g>
</svg>
