<?xml version="1.0" encoding="utf-8"?>
<!-- Generator: Adobe Illustrator 23.0.1, SVG Export Plug-In . SVG Version: 6.00 Build 0)  -->
<svg version="1.1" id="Layer_1" xmlns="http://www.w3.org/2000/svg" xmlns:xlink="http://www.w3.org/1999/xlink" x="0px" y="0px"
	 viewBox="0 0 460 96" style="enable-background:new 0 0 460 96;" xml:space="preserve">
<style type="text/css">
	.st0{fill:#1D1D1B;}
</style>
<g>
	<path class="st0" d="M74.4,47L50.3,29.3l-3.5,4.9l21.4,15.6l-5.1,7L47.5,45.6L32.1,34.3L46,15.4l18.9,13.8l-2.6,3.5l4.9,3.5
		l4.6-6.3c0.8-1.1,0.6-2.7-0.5-3.5l-24.6-18C45.6,7.7,44,7.9,43.2,9L27.3,30.8l0,0L16.5,45.5c-0.8,1.1-0.6,2.7,0.5,3.5l24.2,17.7
		l3.5-4.9L23.5,46.2l5.1-7L44,50.4l15.4,11.2L45.6,80.6L26.6,66.8l2.6-3.5l-4.9-3.5l-4.6,6.3c-0.8,1.1-0.6,2.7,0.5,3.5l24.6,18
		c1.1,0.8,2.7,0.6,3.5-0.5l15.9-21.8l0,0L75,50.5C75.8,49.4,75.6,47.8,74.4,47z"/>
	<g>
		<g>
			<path d="M127.9,35c-0.2,0.4-0.4,0.6-0.6,0.7c-0.2,0.1-0.5,0.2-0.8,0.2c-0.3,0-0.7-0.1-1.1-0.4c-0.4-0.2-0.9-0.5-1.4-0.8
				s-1.2-0.6-1.9-0.8c-0.7-0.2-1.6-0.4-2.6-0.4c-0.9,0-1.7,0.1-2.3,0.3s-1.2,0.5-1.7,0.9c-0.5,0.4-0.8,0.8-1,1.4
				c-0.2,0.5-0.3,1.1-0.3,1.8c0,0.8,0.2,1.5,0.7,2s1.1,1,1.8,1.4s1.6,0.7,2.6,1s1.9,0.6,2.9,1c1,0.3,2,0.7,2.9,1.2s1.8,1,2.6,1.7
				c0.8,0.7,1.4,1.5,1.8,2.6s0.7,2.2,0.7,3.7c0,1.6-0.3,3-0.8,4.4s-1.3,2.6-2.4,3.6c-1,1-2.3,1.8-3.8,2.4s-3.2,0.9-5.1,0.9
				c-1.1,0-2.2-0.1-3.3-0.3c-1.1-0.2-2.1-0.5-3.1-0.9c-1-0.4-1.9-0.9-2.8-1.4c-0.9-0.6-1.6-1.2-2.3-1.9l1.9-3.1
				c0.2-0.2,0.4-0.4,0.6-0.6s0.5-0.2,0.8-0.2c0.4,0,0.8,0.2,1.3,0.5c0.5,0.3,1,0.7,1.6,1.1c0.6,0.4,1.4,0.8,2.2,1.1
				c0.9,0.3,1.9,0.5,3.1,0.5c1.8,0,3.3-0.4,4.3-1.3c1-0.9,1.5-2.1,1.5-3.8c0-0.9-0.2-1.7-0.7-2.2c-0.5-0.6-1.1-1.1-1.8-1.5
				c-0.8-0.4-1.6-0.7-2.6-1c-1-0.3-1.9-0.6-2.9-0.9c-1-0.3-2-0.7-2.9-1.2s-1.8-1-2.6-1.8c-0.8-0.7-1.4-1.6-1.8-2.7s-0.7-2.4-0.7-4
				c0-1.3,0.3-2.5,0.8-3.7s1.2-2.3,2.2-3.2s2.2-1.7,3.6-2.2c1.4-0.6,3-0.8,4.8-0.8c2,0,3.9,0.3,5.7,1c1.7,0.6,3.2,1.5,4.4,2.7
				L127.9,35z"/>
			<path d="M168.3,46c0,2.5-0.4,4.9-1.3,7s-2,4-3.6,5.5s-3.4,2.7-5.5,3.6c-2.2,0.8-4.6,1.3-7.2,1.3h-13.2V28.6h13.2
				c2.6,0,5,0.4,7.2,1.3c2.2,0.9,4,2,5.5,3.6s2.7,3.4,3.6,5.5C167.9,41.1,168.3,43.4,168.3,46z M161.7,46c0-1.9-0.3-3.6-0.8-5.1
				c-0.5-1.5-1.2-2.8-2.2-3.8c-0.9-1-2.1-1.9-3.4-2.4c-1.4-0.6-2.9-0.8-4.6-0.8H144v24.4h6.7c1.7,0,3.2-0.3,4.6-0.8
				c1.4-0.6,2.5-1.4,3.4-2.4c0.9-1,1.7-2.3,2.2-3.8C161.4,49.6,161.7,47.9,161.7,46z"/>
			<path d="M191.2,58.6c1.5,0,2.7-0.1,3.8-0.4c1.1-0.3,2.1-0.6,3.1-1.1v-6.3h-4.3c-0.4,0-0.7-0.1-1-0.3c-0.2-0.2-0.4-0.5-0.4-0.9
				v-3.6h11.5v14c-0.9,0.6-1.8,1.2-2.7,1.7c-1,0.5-2,0.9-3,1.2c-1.1,0.3-2.2,0.5-3.5,0.7c-1.2,0.2-2.6,0.2-4,0.2
				c-2.5,0-4.9-0.4-7-1.3s-4-2.1-5.5-3.7c-1.6-1.6-2.8-3.4-3.6-5.6s-1.3-4.6-1.3-7.1c0-2.6,0.4-5,1.3-7.2c0.8-2.2,2.1-4,3.6-5.6
				c1.6-1.6,3.5-2.8,5.7-3.6s4.7-1.3,7.5-1.3c2.8,0,5.3,0.4,7.4,1.3s3.8,1.9,5.3,3.3l-1.9,2.9c-0.4,0.6-0.9,0.9-1.5,0.9
				c-0.4,0-0.8-0.1-1.2-0.4c-0.5-0.3-1-0.6-1.6-0.9c-0.5-0.3-1.1-0.6-1.8-0.8c-0.6-0.2-1.4-0.4-2.2-0.6c-0.8-0.1-1.7-0.2-2.8-0.2
				c-1.7,0-3.3,0.3-4.6,0.9c-1.4,0.6-2.6,1.4-3.5,2.5s-1.7,2.4-2.3,3.9s-0.8,3.2-0.8,5c0,2,0.3,3.8,0.8,5.3c0.6,1.6,1.3,2.9,2.4,3.9
				c1,1.1,2.2,1.9,3.6,2.5C188,58.3,189.5,58.6,191.2,58.6z"/>
		</g>
		<g>
			<path d="M232.5,37.6L223,63.3h-3.9l9.6-25.7H232.5z"/>
			<path d="M246.5,37.6L237,63.3h-3.9l9.6-25.7H246.5z"/>
			<path d="M280.4,50.2c0,4.2-1.2,7.5-3.5,9.7c-2.4,2.2-5.7,3.4-10.2,3.4h-7.2V37.6h7.9c4.1,0,7.3,1.1,9.5,3.3
				C279.3,43.1,280.4,46.2,280.4,50.2z M276,50.4c0-6.1-2.9-9.2-8.6-9.2h-3.6v18.6h3C272.9,59.8,276,56.6,276,50.4z"/>
			<path d="M297.7,63.3l-0.8-2.7h-0.1c-0.9,1.2-1.9,2-2.8,2.4s-2.2,0.6-3.7,0.6c-1.9,0-3.4-0.5-4.5-1.5c-1.1-1-1.6-2.5-1.6-4.4
				c0-2,0.7-3.5,2.2-4.5c1.5-1,3.8-1.6,6.8-1.7l3.4-0.1v-1c0-1.2-0.3-2.2-0.9-2.8s-1.5-0.9-2.7-0.9c-1,0-1.9,0.1-2.9,0.4
				c-0.9,0.3-1.8,0.6-2.6,1l-1.3-2.9c1.1-0.5,2.2-1,3.5-1.3c1.3-0.3,2.4-0.4,3.5-0.4c2.5,0,4.3,0.5,5.6,1.6c1.3,1.1,1.9,2.8,1.9,5.1
				v13.1H297.7z M291.5,60.5c1.5,0,2.7-0.4,3.6-1.3c0.9-0.8,1.4-2,1.4-3.5V54l-2.5,0.1c-1.9,0.1-3.4,0.4-4.2,1
				c-0.9,0.6-1.3,1.5-1.3,2.7c0,0.9,0.3,1.5,0.8,2C289.7,60.3,290.5,60.5,291.5,60.5z"/>
			<path d="M319.4,57.8c0,1.9-0.7,3.4-2.1,4.4c-1.4,1-3.4,1.5-5.9,1.5c-2.6,0-4.7-0.4-6.2-1.2v-3.6c2.3,1.1,4.4,1.6,6.4,1.6
				c2.5,0,3.8-0.8,3.8-2.3c0-0.5-0.1-0.9-0.4-1.2c-0.3-0.3-0.7-0.7-1.4-1c-0.6-0.4-1.5-0.7-2.7-1.2c-2.2-0.9-3.7-1.7-4.5-2.6
				c-0.8-0.9-1.2-2-1.2-3.4c0-1.7,0.7-3,2-3.9c1.3-0.9,3.2-1.4,5.5-1.4c2.3,0,4.4,0.5,6.5,1.4l-1.3,3.1c-2.1-0.9-3.9-1.3-5.3-1.3
				c-2.2,0-3.3,0.6-3.3,1.9c0,0.6,0.3,1.1,0.9,1.5c0.6,0.4,1.8,1,3.7,1.7c1.6,0.6,2.8,1.2,3.5,1.7c0.7,0.5,1.3,1.1,1.6,1.8
				C319.2,56,319.4,56.8,319.4,57.8z"/>
			<path d="M341,63.3h-4.1V51.4c0-1.5-0.3-2.6-0.9-3.4c-0.6-0.7-1.6-1.1-2.9-1.1c-1.7,0-3,0.5-3.8,1.6c-0.8,1-1.2,2.8-1.2,5.2v9.6
				h-4.1V36h4.1v6.9c0,1.1-0.1,2.3-0.2,3.6h0.3c0.6-0.9,1.3-1.7,2.3-2.2c1-0.5,2.2-0.8,3.5-0.8c4.7,0,7.1,2.4,7.1,7.1V63.3z"/>
			<path d="M356.6,43.5c2.4,0,4.3,0.9,5.7,2.6c1.4,1.8,2,4.2,2,7.4c0,3.2-0.7,5.7-2.1,7.4s-3.3,2.7-5.7,2.7c-2.5,0-4.4-0.9-5.7-2.7
				h-0.3l-0.8,2.3h-3.1V36h4.1v6.5c0,0.5,0,1.2-0.1,2.1c0,0.9-0.1,1.6-0.1,1.8h0.2C352.1,44.5,354.1,43.5,356.6,43.5z M355.5,46.9
				c-1.7,0-2.9,0.5-3.6,1.5c-0.7,1-1.1,2.6-1.1,4.9v0.3c0,2.4,0.4,4.1,1.1,5.1c0.7,1.1,2,1.6,3.7,1.6c1.5,0,2.6-0.6,3.3-1.7
				c0.8-1.2,1.1-2.8,1.1-5C360.1,49.1,358.6,46.9,355.5,46.9z"/>
			<path d="M386.3,53.6c0,3.2-0.8,5.6-2.4,7.4c-1.6,1.8-3.9,2.7-6.8,2.7c-1.8,0-3.4-0.4-4.8-1.2c-1.4-0.8-2.5-2-3.2-3.5
				c-0.7-1.5-1.1-3.3-1.1-5.3c0-3.1,0.8-5.6,2.4-7.4c1.6-1.8,3.9-2.7,6.8-2.7c2.8,0,5,0.9,6.7,2.7C385.5,48.1,386.3,50.5,386.3,53.6
				z M372.2,53.6c0,4.5,1.7,6.7,5,6.7c3.3,0,4.9-2.2,4.9-6.7c0-4.4-1.7-6.7-5-6.7c-1.7,0-3,0.6-3.8,1.7
				C372.6,49.8,372.2,51.4,372.2,53.6z"/>
			<path d="M403.2,63.3l-0.8-2.7h-0.1c-0.9,1.2-1.9,2-2.8,2.4s-2.2,0.6-3.7,0.6c-1.9,0-3.4-0.5-4.5-1.5c-1.1-1-1.6-2.5-1.6-4.4
				c0-2,0.7-3.5,2.2-4.5c1.5-1,3.8-1.6,6.8-1.7l3.4-0.1v-1c0-1.2-0.3-2.2-0.9-2.8s-1.5-0.9-2.7-0.9c-1,0-1.9,0.1-2.9,0.4
				c-0.9,0.3-1.8,0.6-2.6,1l-1.3-2.9c1.1-0.5,2.2-1,3.5-1.3c1.3-0.3,2.4-0.4,3.5-0.4c2.5,0,4.3,0.5,5.6,1.6c1.3,1.1,1.9,2.8,1.9,5.1
				v13.1H403.2z M397.1,60.5c1.5,0,2.7-0.4,3.6-1.3c0.9-0.8,1.4-2,1.4-3.5V54l-2.5,0.1c-1.9,0.1-3.4,0.4-4.2,1
				c-0.9,0.6-1.3,1.5-1.3,2.7c0,0.9,0.3,1.5,0.8,2C395.3,60.3,396,60.5,397.1,60.5z"/>
			<path d="M421.8,43.5c0.8,0,1.5,0.1,2.1,0.2l-0.4,3.8c-0.6-0.1-1.2-0.2-1.8-0.2c-1.7,0-3,0.5-4,1.6c-1,1.1-1.5,2.5-1.5,4.2v10.1
				h-4.1V43.9h3.2l0.5,3.4h0.2c0.6-1.2,1.5-2.1,2.5-2.8C419.5,43.9,420.6,43.5,421.8,43.5z"/>
			<path d="M434,63.7c-2.4,0-4.3-0.9-5.7-2.6c-1.4-1.8-2-4.2-2-7.4c0-3.2,0.7-5.7,2.1-7.4c1.4-1.8,3.3-2.7,5.7-2.7
				c2.6,0,4.5,0.9,5.8,2.8h0.2c-0.2-1.4-0.3-2.5-0.3-3.3V36h4.1v27.3h-3.2l-0.7-2.5h-0.2C438.5,62.7,436.5,63.7,434,63.7z
				 M435.1,60.3c1.7,0,2.9-0.5,3.7-1.4c0.8-1,1.2-2.5,1.2-4.6v-0.6c0-2.4-0.4-4.2-1.2-5.2c-0.8-1-2-1.5-3.7-1.5
				c-1.5,0-2.6,0.6-3.4,1.8c-0.8,1.2-1.2,2.9-1.2,5c0,2.2,0.4,3.8,1.1,4.9C432.4,59.8,433.6,60.3,435.1,60.3z"/>
		</g>
	</g>
</g>
</svg>
